<?xml version="1.0" encoding="UTF-8"?>
<svg width="80" height="80" viewBox="0 0 80 80" fill="none" xmlns="http://www.w3.org/2000/svg">
  <defs>
    <!-- 渐变定义 -->
    <linearGradient id="mainGrad" x1="0%" y1="0%" x2="100%" y2="100%">
      <stop offset="0%" style="stop-color:#667eea;stop-opacity:1" />
      <stop offset="50%" style="stop-color:#764ba2;stop-opacity:1" />
      <stop offset="100%" style="stop-color:#f093fb;stop-opacity:1" />
    </linearGradient>
    
    <linearGradient id="innerGrad" x1="0%" y1="0%" x2="100%" y2="100%">
      <stop offset="0%" style="stop-color:#a8edea;stop-opacity:1" />
      <stop offset="100%" style="stop-color:#fed6e3;stop-opacity:1" />
    </linearGradient>
    
    <linearGradient id="starGrad" x1="0%" y1="0%" x2="100%" y2="100%">
      <stop offset="0%" style="stop-color:#FFD700;stop-opacity:1" />
      <stop offset="100%" style="stop-color:#FFA500;stop-opacity:1" />
    </linearGradient>
    
    <!-- 发光滤镜 -->
    <filter id="glow" x="-20%" y="-20%" width="140%" height="140%">
      <feGaussianBlur stdDeviation="3" result="coloredBlur"/>
      <feMerge> 
        <feMergeNode in="coloredBlur"/>
        <feMergeNode in="SourceGraphic"/>
      </feMerge>
    </filter>
    
    <!-- 阴影滤镜 -->
    <filter id="dropshadow" x="-30%" y="-30%" width="160%" height="160%">
      <feDropShadow dx="0" dy="4" stdDeviation="6" flood-color="#000" flood-opacity="0.3"/>
    </filter>
  </defs>

  <!-- 外圈装饰环 -->
  <circle cx="40" cy="40" r="38" fill="none" stroke="url(#mainGrad)" stroke-width="2" opacity="0.3"/>
  <circle cx="40" cy="40" r="34" fill="none" stroke="url(#innerGrad)" stroke-width="1" opacity="0.5"/>

  <!-- 主背景圆 -->
  <circle cx="40" cy="40" r="30" fill="url(#mainGrad)" filter="url(#dropshadow)"/>
  
  <!-- 内部装饰圆 -->
  <circle cx="40" cy="40" r="28" fill="none" stroke="rgba(255,255,255,0.3)" stroke-width="1"/>
  <circle cx="40" cy="40" r="24" fill="none" stroke="rgba(255,255,255,0.2)" stroke-width="0.5"/>

  <!-- 中心知识符号 - 现代化书本/屏幕 -->
  <g transform="translate(40, 40)">
    <!-- 屏幕/平板 -->
    <rect x="-12" y="-10" width="24" height="18" rx="3" fill="rgba(255,255,255,0.9)" stroke="rgba(255,255,255,0.3)" stroke-width="1"/>
    
    <!-- 屏幕内容线条 -->
    <rect x="-9" y="-7" width="8" height="1.5" rx="0.5" fill="url(#mainGrad)" opacity="0.8"/>
    <rect x="-9" y="-4" width="12" height="1" rx="0.5" fill="url(#mainGrad)" opacity="0.6"/>
    <rect x="-9" y="-1" width="10" height="1" rx="0.5" fill="url(#mainGrad)" opacity="0.6"/>
    <rect x="-9" y="2" width="14" height="1" rx="0.5" fill="url(#mainGrad)" opacity="0.6"/>
    <rect x="-9" y="5" width="9" height="1" rx="0.5" fill="url(#mainGrad)" opacity="0.6"/>
    
    <!-- 现代化选择标记 -->
    <circle cx="6" cy="-4" r="2" fill="url(#starGrad)" opacity="0.9"/>
    <path d="M5 -4 L5.8 -3.2 L7.2 -4.8" stroke="white" stroke-width="1" fill="none" stroke-linecap="round"/>
    
    <circle cx="6" cy="2" r="2" fill="rgba(255,255,255,0.4)" stroke="url(#mainGrad)" stroke-width="1"/>
  </g>

  <!-- 星星装饰 -->
  <g fill="url(#starGrad)" filter="url(#glow)">
    <!-- 左上星星 -->
    <g transform="translate(15, 18)">
      <path d="M0 -4 L1.2 -1.2 L4 0 L1.2 1.2 L0 4 L-1.2 1.2 L-4 0 L-1.2 -1.2 Z" opacity="0.8"/>
    </g>
    
    <!-- 右上星星 -->
    <g transform="translate(65, 22)">
      <path d="M0 -3 L0.9 -0.9 L3 0 L0.9 0.9 L0 3 L-0.9 0.9 L-3 0 L-0.9 -0.9 Z" opacity="0.7"/>
    </g>
    
    <!-- 左下星星 -->
    <g transform="translate(18, 62)">
      <path d="M0 -2.5 L0.7 -0.7 L2.5 0 L0.7 0.7 L0 2.5 L-0.7 0.7 L-2.5 0 L-0.7 -0.7 Z" opacity="0.9"/>
    </g>
    
    <!-- 右下星星 -->
    <g transform="translate(62, 58)">
      <path d="M0 -3.5 L1 -1 L3.5 0 L1 1 L0 3.5 L-1 1 L-3.5 0 L-1 -1 Z" opacity="0.6"/>
    </g>
  </g>

  <!-- 轨道装饰线 -->
  <g fill="none" stroke="rgba(255,255,255,0.4)" stroke-width="1" opacity="0.6">
    <circle cx="40" cy="40" r="20" stroke-dasharray="2,4"/>
    <circle cx="40" cy="40" r="16" stroke-dasharray="1,3"/>
  </g>

  <!-- 科技感粒子 -->
  <g fill="rgba(255,255,255,0.8)">
    <circle cx="25" cy="35" r="1" opacity="0.7">
      <animate attributeName="opacity" values="0.3;1;0.3" dur="2s" repeatCount="indefinite"/>
    </circle>
    <circle cx="55" cy="45" r="1" opacity="0.6">
      <animate attributeName="opacity" values="0.4;1;0.4" dur="2.5s" repeatCount="indefinite"/>
    </circle>
    <circle cx="32" cy="55" r="0.8" opacity="0.8">
      <animate attributeName="opacity" values="0.2;1;0.2" dur="3s" repeatCount="indefinite"/>
    </circle>
    <circle cx="48" cy="28" r="1.2" opacity="0.5">
      <animate attributeName="opacity" values="0.5;1;0.5" dur="1.8s" repeatCount="indefinite"/>
    </circle>
  </g>

  <!-- 外发光效果 -->
  <circle cx="40" cy="40" r="30" fill="none" stroke="url(#mainGrad)" stroke-width="0.5" opacity="0.8" filter="url(#glow)"/>
</svg>
